<svg width="1440" height="897" viewBox="0 0 1440 897" fill="none" xmlns="http://www.w3.org/2000/svg">
<g clip-path="url(#clip0_298_42)">
<path d="M1440 0H0V897H1440V0Z" fill="#503000"/>
<path d="M0 249L30 249.2C60 249.3 120 249.7 180 269.2C240 288.7 300 327.3 360 331.5C420 335.7 480 305.3 540 299.8C600 294.3 660 313.7 720 310.3C780 307 840 281 900 274.3C960 267.7 1020 280.3 1080 294.5C1140 308.7 1200 324.3 1260 331.3C1320 338.3 1380 336.7 1410 335.8L1440 335V0H1410C1380 0 1320 0 1260 0C1200 0 1140 0 1080 0C1020 0 960 0 900 0C840 0 780 0 720 0C660 0 600 0 540 0C480 0 420 0 360 0C300 0 240 0 180 0C120 0 60 0 30 0H0V249Z" fill="#886C47"/>
<path d="M0 226L30 232.7C60 239.3 120 252.7 180 242.7C240 232.7 300 199.3 360 198.2C420 197 480 228 540 234.2C600 240.3 660 221.7 720 213.3C780 205 840 207 900 210.5C960 214 1020 219 1080 218.5C1140 218 1200 212 1260 215.8C1320 219.7 1380 233.3 1410 240.2L1440 247V0H1410C1380 0 1320 0 1260 0C1200 0 1140 0 1080 0C1020 0 960 0 900 0C840 0 780 0 720 0C660 0 600 0 540 0C480 0 420 0 360 0C300 0 240 0 180 0C120 0 60 0 30 0H0V226Z" fill="#C2AE91"/>
<path d="M0 106L30 113.2C60 120.3 120 134.7 180 139.2C240 143.7 300 138.3 360 139.5C420 140.7 480 148.3 540 136.2C600 124 660 92 720 84.3C780 76.7 840 93.3 900 99.2C960 105 1020 100 1080 104C1140 108 1200 121 1260 115.5C1320 110 1380 86 1410 74L1440 62V0H1410C1380 0 1320 0 1260 0C1200 0 1140 0 1080 0C1020 0 960 0 900 0C840 0 780 0 720 0C660 0 600 0 540 0C480 0 420 0 360 0C300 0 240 0 180 0C120 0 60 0 30 0H0V106Z" fill="#F5F8F5"/>
</g>
<defs>
<clipPath id="clip0_298_42">
<rect width="1440" height="897" fill="white"/>
</clipPath>
</defs>
</svg>
