<svg width="1440" height="897" viewBox="0 0 1440 897" fill="none" xmlns="http://www.w3.org/2000/svg">
<g clip-path="url(#clip0_279_38)">
<path d="M1440 0H0V897H1440V0Z" fill="#503000"/>
<path d="M0 373L34.3 370C68.7 367 137.3 361 205.8 351.3C274.3 341.7 342.7 328.3 411.2 330.7C479.7 333 548.3 351 617 356.2C685.7 361.3 754.3 353.7 823 356.5C891.7 359.3 960.3 372.7 1028.8 368.2C1097.3 363.7 1165.7 341.3 1234.2 329.8C1302.7 318.3 1371.3 317.7 1405.7 317.3L1440 317V0H1405.7C1371.3 0 1302.7 0 1234.2 0C1165.7 0 1097.3 0 1028.8 0C960.3 0 891.7 0 823 0C754.3 0 685.7 0 617 0C548.3 0 479.7 0 411.2 0C342.7 0 274.3 0 205.8 0C137.3 0 68.7 0 34.3 0H0V373Z" fill="#503000"/>
<path d="M0 284L34.3 286.5C68.7 289 137.3 294 205.8 286.5C274.3 279 342.7 259 411.2 251.2C479.7 243.3 548.3 247.7 617 255.8C685.7 264 754.3 276 823 273.3C891.7 270.7 960.3 253.3 1028.8 253.5C1097.3 253.7 1165.7 271.3 1234.2 273.8C1302.7 276.3 1371.3 263.7 1405.7 257.3L1440 251V0H1405.7C1371.3 0 1302.7 0 1234.2 0C1165.7 0 1097.3 0 1028.8 0C960.3 0 891.7 0 823 0C754.3 0 685.7 0 617 0C548.3 0 479.7 0 411.2 0C342.7 0 274.3 0 205.8 0C137.3 0 68.7 0 34.3 0H0V284Z" fill="#886C47"/>
<path d="M0 214L34.3 202C68.7 190 137.3 166 205.8 162.3C274.3 158.7 342.7 175.3 411.2 178C479.7 180.7 548.3 169.3 617 171.7C685.7 174 754.3 190 823 189.8C891.7 189.7 960.3 173.3 1028.8 166.8C1097.3 160.3 1165.7 163.7 1234.2 163.2C1302.7 162.7 1371.3 158.3 1405.7 156.2L1440 154V0H1405.7C1371.3 0 1302.7 0 1234.2 0C1165.7 0 1097.3 0 1028.8 0C960.3 0 891.7 0 823 0C754.3 0 685.7 0 617 0C548.3 0 479.7 0 411.2 0C342.7 0 274.3 0 205.8 0C137.3 0 68.7 0 34.3 0H0V214Z" fill="#C2AE91"/>
<path d="M0 46L34.3 52.2C68.7 58.3 137.3 70.7 205.8 73.8C274.3 77 342.7 71 411.2 78.3C479.7 85.7 548.3 106.3 617 113.3C685.7 120.3 754.3 113.7 823 105.7C891.7 97.7 960.3 88.3 1028.8 89.5C1097.3 90.7 1165.7 102.3 1234.2 111.3C1302.7 120.3 1371.3 126.7 1405.7 129.8L1440 133V0H1405.7C1371.3 0 1302.7 0 1234.2 0C1165.7 0 1097.3 0 1028.8 0C960.3 0 891.7 0 823 0C754.3 0 685.7 0 617 0C548.3 0 479.7 0 411.2 0C342.7 0 274.3 0 205.8 0C137.3 0 68.7 0 34.3 0H0V46Z" fill="#F5F8F5"/>
</g>
<defs>
<clipPath id="clip0_279_38">
<rect width="1440" height="897" fill="white"/>
</clipPath>
</defs>
</svg>
